<svg width="22" height="26" viewBox="0 0 22 26" fill="none" xmlns="http://www.w3.org/2000/svg">
<g id="phone-ringing-1--android-phone-mobile-device-smartphone-iphone-ringing-incoming-call">
<path id="Vector" d="M10.2601 24.2421C9.46133 24.8381 8.51064 25.0994 7.56602 24.9824C6.62142 24.8654 5.73979 24.3774 5.06773 23.5992L4.48224 22.9206C4.22257 22.6163 4.0769 22.2058 4.0769 21.7778C4.0769 21.3499 4.22257 20.9392 4.48224 20.6349L6.94744 17.7956C7.20732 17.4958 7.5591 17.3274 7.92582 17.3274C8.29253 17.3274 8.64432 17.4958 8.90419 17.7956C9.16669 18.0966 9.52103 18.2654 9.89027 18.2654C10.2595 18.2654 10.6139 18.0966 10.8764 17.7956L14.8053 13.2421C15.065 12.9378 15.2106 12.5272 15.2106 12.0992C15.2106 11.6713 15.065 11.2606 14.8053 10.9564C14.5465 10.6552 14.4013 10.2474 14.4013 9.82243C14.4013 9.39741 14.5465 8.9897 14.8053 8.6885L17.178 5.83136C17.4405 5.53038 17.7949 5.36157 18.164 5.36157C18.5333 5.36157 18.8877 5.53038 19.1501 5.83136L19.7356 6.50993C20.4191 7.27786 20.8546 8.29422 20.9696 9.38939C21.0847 10.4846 20.8721 11.5923 20.3673 12.5278C17.6807 17.1506 14.2487 21.1283 10.2601 24.2421Z" stroke="#696A77" stroke-width="1.78571" stroke-linecap="round" stroke-linejoin="round"/>
<path id="Vector_2" d="M11.0149 1.7959C9.6997 1.7959 8.3974 2.09613 7.18235 2.67944C5.96728 3.26276 4.86326 4.11774 3.93329 5.19556C3.00331 6.27338 2.26563 7.55293 1.76234 8.96118C1.25904 10.3694 1 11.8788 1 13.403" stroke="black" stroke-width="1.78571" stroke-linecap="round" stroke-linejoin="round"/>
<path id="Vector_3" d="M11.0148 6.26025C9.38027 6.26025 7.81269 7.01281 6.6569 8.35234C5.50112 9.6919 4.85181 11.5087 4.85181 13.4031" stroke="black" stroke-width="1.78571" stroke-linecap="round" stroke-linejoin="round"/>
</g>
</svg>
